<?xml version="1.0" standalone="no"?>
<!DOCTYPE svg PUBLIC "-//W3C//DTD SVG 20010904//EN"
 "http://www.w3.org/TR/2001/REC-SVG-20010904/DTD/svg10.dtd">
<svg version="1.0" xmlns="http://www.w3.org/2000/svg"
 width="949.000000pt" height="511.000000pt" viewBox="0 0 949.000000 511.000000"
 preserveAspectRatio="xMidYMid meet">

<g transform="translate(0.000000,511.000000) scale(0.100000,-0.100000)"
fill="#000000" stroke="none">
<path d="M4235 5069 c-33 -16 -64 -34 -69 -40 -6 -5 -20 -9 -32 -9 -11 0 -33
-11 -48 -25 -15 -14 -36 -25 -47 -25 -11 0 -52 -20 -90 -45 -38 -25 -72 -45
-75 -45 -3 0 -25 -13 -49 -30 -24 -16 -52 -30 -63 -30 -10 0 -29 -9 -42 -20
-13 -11 -26 -20 -30 -20 -4 0 -18 -9 -31 -21 -21 -18 -66 -45 -180 -109 -15
-8 -51 -31 -80 -51 -77 -51 -208 -129 -218 -129 -4 0 -41 -25 -82 -56 -41 -31
-92 -64 -114 -74 -22 -9 -67 -36 -99 -59 -33 -22 -63 -41 -68 -41 -5 0 -41
-22 -81 -49 -40 -26 -85 -55 -102 -63 -98 -50 -122 -63 -144 -80 -13 -10 -30
-18 -37 -18 -7 0 -22 -13 -34 -30 -11 -16 -58 -51 -103 -79 -45 -27 -93 -61
-105 -74 -13 -14 -34 -28 -45 -31 -12 -4 -43 -34 -68 -69 -36 -49 -61 -70
-110 -96 -35 -19 -79 -45 -96 -58 -18 -13 -63 -36 -101 -52 -38 -15 -96 -48
-128 -73 -32 -24 -98 -68 -145 -96 -123 -73 -127 -82 -47 -82 71 0 259 30 376
60 54 13 87 29 125 60 218 173 349 256 384 243 13 -5 15 -19 11 -77 -6 -86 -3
-96 28 -96 57 0 197 94 489 329 218 176 304 228 347 212 14 -5 52 -40 84 -78
108 -124 216 -231 246 -244 27 -11 36 -10 66 7 54 29 85 96 90 197 4 78 -4
119 -41 207 -7 16 240 327 258 326 5 -1 21 -48 36 -106 33 -129 46 -163 59
-155 5 3 10 35 10 70 0 114 89 333 140 345 22 5 26 12 30 60 7 70 18 88 83
144 39 33 65 68 96 127 l41 80 62 -58 c35 -31 113 -105 173 -164 74 -71 132
-117 175 -140 120 -63 200 -160 200 -244 0 -11 13 -55 29 -97 27 -70 41 -127
56 -230 5 -32 27 -58 144 -175 129 -128 142 -144 182 -230 24 -51 47 -93 51
-93 4 0 4 44 1 99 -4 66 -2 100 5 105 6 4 28 -17 51 -48 23 -30 69 -75 103
-100 82 -58 150 -129 232 -243 37 -51 74 -93 82 -93 18 0 18 12 -2 58 -8 20
-26 86 -40 146 -44 197 -32 177 -149 257 -147 100 -205 153 -205 190 0 16 9
38 20 49 19 19 22 19 57 5 20 -9 61 -36 91 -60 50 -41 72 -53 72 -40 0 9 -88
179 -103 200 -14 19 -16 19 -34 2 -28 -25 -46 -22 -36 6 4 12 8 37 8 56 0 26
6 36 25 43 23 9 22 11 -53 86 -97 98 -104 116 -79 201 32 106 32 115 17 175
-8 32 -13 62 -9 67 3 5 24 9 48 9 31 0 58 -10 102 -36 73 -45 219 -115 423
-203 146 -63 160 -71 216 -130 114 -121 300 -243 442 -292 31 -10 59 -19 62
-19 3 0 -28 21 -69 46 -93 58 -221 157 -279 217 l-43 45 66 -14 c82 -17 117
-35 181 -90 27 -24 74 -55 105 -70 30 -14 93 -54 140 -88 169 -124 242 -166
363 -206 89 -29 128 -60 270 -215 82 -90 154 -157 240 -222 109 -83 129 -94
192 -108 39 -9 107 -27 151 -40 45 -14 104 -25 130 -25 l49 0 -62 34 c-34 18
-103 65 -155 103 -57 43 -142 94 -218 131 -144 69 -207 121 -374 312 -55 63
-107 121 -116 128 -54 47 -146 95 -247 131 -124 44 -167 66 -196 101 -54 64
-478 293 -541 293 -17 0 -47 10 -66 22 -103 63 -196 100 -436 170 -103 30
-167 55 -201 78 -27 18 -87 48 -132 66 -112 46 -114 45 -335 -72 -70 -38 -95
-46 -120 -42 -22 4 -47 -2 -83 -20 -29 -14 -55 -25 -58 -25 -13 0 -95 59 -149
107 -33 29 -64 53 -69 53 -5 0 -62 35 -126 77 -111 74 -301 163 -346 163 -11
0 -47 -14 -80 -31z"/>
<path d="M9040 3097 c-112 -25 -180 -82 -234 -197 -30 -63 -31 -70 -31 -200 0
-171 15 -222 89 -295 41 -42 73 -60 166 -99 183 -77 210 -93 226 -131 20 -50
19 -246 -2 -290 -24 -51 -59 -69 -131 -70 -47 0 -68 5 -90 21 -40 29 -63 80
-63 142 l0 52 -106 0 -106 0 4 -92 c3 -79 8 -101 33 -146 39 -71 94 -125 163
-159 52 -25 67 -28 167 -28 100 0 115 2 167 28 70 35 130 100 159 176 19 46
23 82 27 207 8 291 -30 350 -288 454 -189 76 -210 98 -210 217 0 93 14 136 56
172 29 26 43 31 85 31 27 0 63 -7 78 -15 39 -20 71 -88 71 -153 l0 -52 106 0
106 0 -4 103 c-3 90 -7 108 -31 150 -83 141 -246 210 -407 174z"/>
<path d="M10 2350 l0 -740 105 0 105 0 0 315 0 315 63 0 63 0 99 -315 98 -315
113 0 113 0 -114 338 -114 337 22 15 c50 33 106 101 128 157 21 52 24 74 24
208 0 130 -3 158 -22 209 -27 70 -61 117 -116 157 -70 51 -118 59 -354 59
l-213 0 0 -740z m420 522 c61 -30 75 -69 75 -207 0 -191 -29 -226 -192 -233
l-93 -4 0 231 0 231 88 0 c63 0 97 -5 122 -18z"/>
<path d="M1436 3073 c-3 -10 -75 -333 -161 -718 -86 -385 -159 -710 -162 -723
l-5 -23 108 3 108 3 30 158 30 158 145 -3 145 -3 31 -155 31 -155 108 -3 c99
-2 107 -1 102 15 -2 10 -68 304 -146 653 -78 349 -151 674 -162 723 l-20 87
-88 0 c-76 0 -89 -3 -94 -17z m149 -684 c25 -130 45 -242 45 -248 0 -7 -33
-11 -100 -11 -89 0 -100 2 -100 18 0 46 95 511 102 495 4 -10 28 -124 53 -254z"/>
<path d="M2370 2350 l0 -740 105 0 105 0 0 740 0 740 -105 0 -105 0 0 -740z"/>
<path d="M3090 2350 l0 -740 110 0 110 0 2 439 3 439 160 -439 160 -439 97 0
98 0 0 740 0 740 -105 0 -105 0 -2 -439 -3 -439 -157 437 -156 436 -106 3
-106 3 0 -741z"/>
<path d="M4250 3083 c0 -4 65 -199 145 -432 l145 -424 0 -309 0 -308 105 0
105 0 0 314 0 314 145 426 144 426 -113 0 -113 0 -83 -290 c-46 -159 -86 -287
-88 -285 -3 2 -42 132 -87 287 l-82 283 -111 3 c-62 1 -112 -1 -112 -5z"/>
<path d="M5460 2350 l0 -742 203 4 c226 6 276 16 349 71 53 41 91 96 114 167
15 48 18 106 22 447 2 239 0 424 -7 477 -18 146 -78 238 -190 290 -42 19 -66
21 -268 24 l-223 3 0 -741z m401 524 c18 -9 38 -32 50 -57 17 -39 19 -71 19
-467 0 -385 -2 -428 -18 -459 -29 -58 -61 -74 -157 -79 l-85 -5 0 542 0 541
80 0 c54 0 91 -5 111 -16z"/>
<path d="M6865 3078 c-6 -18 -325 -1449 -325 -1459 0 -5 47 -9 104 -9 l104 0
10 48 c6 26 20 98 33 160 l22 112 143 0 c127 0 143 -2 148 -17 3 -10 17 -82
32 -160 l27 -143 107 0 107 0 -163 732 c-90 402 -164 735 -164 740 0 14 -180
10 -185 -4z m145 -682 c27 -142 50 -260 50 -262 0 -2 -48 -4 -106 -4 -105 0
-106 0 -101 23 3 12 27 131 53 265 26 133 48 241 50 239 2 -1 26 -119 54 -261z"/>
<path d="M7590 3082 c0 -5 65 -199 145 -433 l145 -424 0 -307 0 -308 105 0
105 0 0 318 1 317 143 420 143 420 -110 3 c-60 1 -111 1 -113 0 -1 -2 -40
-132 -86 -290 -45 -158 -85 -284 -88 -282 -2 3 -41 132 -86 287 l-81 282 -112
3 c-61 1 -111 -1 -111 -6z"/>
<path d="M1520 1169 c-454 -5 -904 -12 -1000 -16 l-175 -7 280 -7 c2642 -65
5588 -65 8230 0 l280 7 -175 7 c-599 25 -5459 35 -7440 16z"/>
<path d="M1610 350 l0 -220 30 0 30 0 0 85 0 85 66 0 c119 0 172 48 162 149
-9 92 -58 121 -205 121 l-83 0 0 -220z m210 130 c27 -27 25 -66 -5 -96 -22
-22 -32 -25 -83 -22 l-57 3 -3 68 -3 67 66 0 c52 0 69 -4 85 -20z"/>
<path d="M2590 350 l0 -220 30 0 30 0 0 103 c0 118 12 147 60 147 48 0 60 -29
60 -147 l0 -103 30 0 30 0 0 126 c0 125 0 126 -29 155 -24 23 -38 29 -75 29
-24 0 -48 -4 -51 -10 -16 -26 -25 -3 -25 65 l0 75 -30 0 -30 0 0 -220z"/>
<path d="M2920 535 c0 -32 2 -35 30 -35 28 0 30 3 30 35 0 32 -2 35 -30 35
-28 0 -30 -3 -30 -35z"/>
<path d="M4030 350 l0 -220 30 0 30 0 0 103 c0 118 12 147 60 147 48 0 60 -29
60 -147 l0 -103 30 0 30 0 0 126 c0 125 0 126 -29 155 -24 23 -38 29 -75 29
-24 0 -48 -4 -51 -10 -16 -26 -25 -3 -25 65 l0 75 -30 0 -30 0 0 -220z"/>
<path d="M4879 549 c-62 -37 -74 -68 -74 -199 1 -130 13 -167 68 -200 39 -24
116 -26 158 -5 30 16 69 68 69 93 0 23 -59 14 -83 -13 -12 -14 -36 -28 -54
-31 -27 -5 -37 -1 -64 25 l-31 31 4 106 c3 97 5 107 27 125 36 29 84 25 114
-11 18 -21 35 -30 56 -30 36 0 39 12 11 58 -42 69 -130 92 -201 51z"/>
<path d="M6034 556 c-35 -15 -44 -32 -44 -82 0 -24 -5 -34 -15 -34 -9 0 -15
-9 -15 -25 0 -16 6 -25 15 -25 13 0 15 -21 15 -130 l0 -130 30 0 30 0 0 130 0
130 30 0 c25 0 30 4 30 25 0 21 -5 25 -30 25 -27 0 -30 3 -30 30 0 26 5 31 30
37 25 4 30 10 30 34 0 24 -4 29 -22 29 -13 -1 -37 -7 -54 -14z"/>
<path d="M6997 563 c-4 -3 -7 -17 -7 -30 0 -22 2 -23 95 -23 52 0 95 -2 95 -4
0 -3 -43 -77 -95 -165 -53 -90 -95 -171 -95 -186 l0 -25 135 0 135 0 0 30 0
30 -95 0 c-52 0 -95 2 -95 5 0 2 43 74 95 160 64 105 95 165 95 185 l0 30
-128 0 c-71 0 -132 -3 -135 -7z"/>
<path d="M983 515 c8 -17 41 -64 72 -104 l56 -73 -38 -45 c-91 -108 -125 -149
-135 -167 -13 -24 90 47 163 113 l54 48 66 -56 c81 -68 159 -125 159 -116 0
10 -53 77 -122 156 l-58 66 31 39 c44 54 111 155 107 159 -1 2 -43 -32 -93
-75 l-89 -78 -76 66 c-119 105 -116 103 -97 67z"/>
<path d="M8501 493 c18 -26 51 -73 75 -103 l42 -55 -49 -53 c-63 -68 -147
-178 -128 -167 44 26 106 72 161 120 l63 55 40 -39 c46 -43 117 -100 160 -127
l30 -19 -35 49 c-19 27 -61 77 -92 111 -32 35 -58 66 -58 69 0 3 27 43 60 87
34 45 66 91 72 102 10 20 10 20 -18 0 -16 -12 -59 -49 -96 -82 l-67 -62 -78
71 c-104 95 -124 105 -82 43z"/>
<path d="M3860 485 c0 -33 -4 -45 -15 -45 -19 0 -20 -36 -1 -47 10 -6 15 -36
18 -116 3 -100 5 -110 27 -128 13 -10 36 -19 52 -19 25 0 29 4 29 29 0 23 -5
30 -22 33 -22 3 -23 8 -26 101 l-3 97 26 0 c20 0 25 5 25 24 0 18 -6 25 -22
28 -19 2 -24 10 -26 46 -3 39 -5 42 -33 42 -28 0 -29 -2 -29 -45z"/>
<path d="M6700 485 c0 -33 -4 -45 -15 -45 -9 0 -15 -9 -15 -25 0 -16 6 -25 15
-25 12 0 15 -19 15 -110 0 -124 12 -150 70 -150 26 0 30 3 30 29 0 20 -6 30
-20 34 -18 5 -20 14 -20 101 0 89 1 96 20 96 15 0 20 7 20 25 0 18 -5 25 -20
25 -17 0 -20 7 -20 45 0 43 -1 45 -30 45 -29 0 -30 -2 -30 -45z"/>
<path d="M1970 314 c0 -125 0 -126 29 -155 32 -32 84 -39 124 -18 16 9 22 9
25 0 2 -6 17 -11 33 -11 l29 0 0 155 0 155 -29 0 -29 0 -4 -111 c-3 -96 -6
-113 -22 -125 -27 -19 -60 -18 -79 4 -14 15 -17 40 -17 125 l0 107 -30 0 -30
0 0 -126z"/>
<path d="M2315 418 c-15 -14 -28 -38 -32 -60 -5 -32 -1 -41 25 -68 25 -24 39
-30 74 -30 56 0 88 -21 72 -47 -15 -25 -81 -29 -122 -7 -30 16 -34 16 -49 2
-39 -39 36 -83 130 -76 50 4 64 9 84 32 29 34 30 84 3 119 -17 21 -33 27 -81
33 -73 8 -95 33 -54 60 24 16 29 16 67 0 39 -15 43 -15 60 1 25 22 23 30 -12
48 -46 24 -133 20 -165 -7z"/>
<path d="M2920 285 l0 -155 30 0 30 0 0 155 0 155 -30 0 -30 0 0 -155z"/>
<path d="M3070 285 l0 -155 30 0 30 0 0 108 c0 93 3 111 18 125 23 21 52 22
78 3 16 -12 19 -29 22 -125 l4 -111 29 0 29 0 0 110 c0 119 -13 170 -48 189
-26 14 -87 14 -113 1 -13 -7 -19 -7 -19 0 0 5 -13 10 -30 10 l-30 0 0 -155z"/>
<path d="M3416 415 c-45 -49 -44 -214 2 -260 27 -27 86 -34 123 -15 16 9 19 7
19 -10 0 -54 -52 -84 -96 -55 -22 14 -26 14 -49 -1 -31 -20 -31 -21 -2 -45 54
-45 153 -32 187 24 18 29 20 51 20 210 l0 177 -30 0 c-16 0 -30 -5 -30 -10 0
-7 -6 -7 -19 0 -37 20 -100 12 -125 -15z m126 -52 c14 -12 18 -31 18 -76 0
-67 -17 -97 -55 -97 -37 0 -56 32 -56 95 0 84 45 122 93 78z"/>
<path d="M4402 424 c-54 -38 -75 -162 -39 -231 33 -63 127 -83 194 -42 l35 22
-20 20 c-19 19 -23 19 -59 5 -21 -8 -45 -13 -53 -10 -26 8 -50 34 -50 54 0 16
9 18 91 18 l91 0 -4 61 c-4 54 -9 66 -36 90 -26 23 -42 29 -80 29 -27 0 -57
-7 -70 -16z m102 -55 c14 -11 26 -29 26 -40 0 -17 -7 -19 -60 -19 -51 0 -60 3
-60 18 0 29 28 57 61 61 4 1 18 -8 33 -20z"/>
<path d="M5192 424 c-36 -25 -52 -68 -52 -139 0 -107 39 -155 126 -155 39 0
51 5 78 33 63 62 58 206 -8 259 -27 23 -113 24 -144 2z m114 -65 c13 -14 18
-36 18 -74 0 -61 -22 -95 -61 -95 -41 0 -63 33 -63 95 0 42 5 60 20 75 26 26
62 26 86 -1z"/>
<path d="M5460 285 l0 -155 30 0 30 0 0 108 c0 119 10 142 62 142 47 0 58 -26
58 -143 l0 -107 29 0 29 0 4 111 c3 96 6 113 22 125 28 20 63 17 86 -6 17 -17
20 -33 20 -125 l0 -105 31 0 31 0 -4 131 c-3 129 -3 131 -31 155 -34 29 -109
33 -145 8 -20 -14 -24 -14 -44 0 -27 19 -109 21 -127 4 -11 -10 -14 -10 -18 0
-3 6 -18 12 -34 12 l-29 0 0 -155z"/>
<path d="M6178 411 c-33 -29 -33 -29 -33 -126 0 -97 0 -97 33 -126 27 -24 41
-29 83 -29 45 0 55 4 85 34 33 33 34 35 34 121 0 86 -1 88 -34 121 -30 30 -40
34 -85 34 -42 0 -56 -5 -83 -29z m126 -53 c22 -31 21 -126 -1 -150 -23 -25
-68 -23 -87 4 -10 13 -16 43 -16 73 0 30 6 60 16 73 20 30 68 30 88 0z"/>
<path d="M6460 285 l0 -155 30 0 30 0 0 108 c0 95 2 111 20 127 14 12 28 16
52 12 28 -5 36 -2 52 19 15 22 16 28 5 35 -21 13 -93 11 -108 -3 -11 -10 -14
-10 -18 0 -3 6 -18 12 -34 12 l-29 0 0 -155z"/>
<path d="M7353 405 l-35 -35 4 -91 c3 -88 4 -92 36 -120 27 -24 41 -29 83 -29
45 0 55 4 85 34 33 33 34 35 34 121 0 86 -1 88 -34 121 -30 30 -40 34 -86 34
-46 0 -56 -4 -87 -35z m131 -47 c22 -31 21 -126 -1 -150 -23 -25 -68 -23 -87
4 -10 13 -16 43 -16 73 0 30 6 60 16 73 20 30 68 30 88 0z"/>
<path d="M7640 285 l0 -155 30 0 30 0 0 108 c0 93 3 111 18 125 25 23 58 21
82 -3 17 -17 20 -33 20 -125 l0 -105 30 0 30 0 0 115 c0 123 -11 164 -49 185
-27 14 -94 13 -110 -2 -11 -10 -14 -10 -18 0 -3 6 -18 12 -34 12 l-29 0 0
-155z"/>
<path d="M7995 407 c-60 -60 -60 -184 0 -244 29 -29 39 -33 88 -33 40 0 61 6
81 21 31 24 32 30 7 46 -16 10 -27 10 -53 -1 -20 -9 -41 -11 -54 -6 -21 8 -54
46 -54 62 0 5 43 8 95 8 l95 0 0 45 c0 87 -45 135 -126 135 -39 0 -51 -5 -79
-33z m132 -53 c21 -33 9 -44 -52 -44 -60 0 -67 5 -54 38 17 44 78 48 106 6z"/>
</g>
</svg>
